<svg id="Ebene_1" data-name="Ebene 1" xmlns="http://www.w3.org/2000/svg" viewBox="0 0 64 64">
	<defs>
		<style>.cls-1{fill:none;stroke-width:1.5px;transform:scale(2.66667,2.66667);}.cls-1,.cls-3{stroke:#4b4b4d;stroke-linecap:round;stroke-miterlimit:10;transform:scale(2.66667,2.66667);}.cls-2{fill:#4b4b4d;transform:scale(2.66667,2.66667);}.cls-3{fill:#000;}</style>
	</defs>
	<g id="Gruppe_17939" data-name="Gruppe 17939">
		<path id="Pfad_6886" data-name="Pfad 6886" class="cls-1" d="M16.22,15.37l-9.3-.16L3,15,.88,14.47.75,10.39A2.78,2.78,0,0,1,1.31,9.2L2.55,7.63"/>
		<path id="Pfad_6887" data-name="Pfad 6887" class="cls-1" d="M.78,7.46,7,7l.87,0L11.37,7a5.57,5.57,0,0,1,1.06.23,9.43,9.43,0,0,1,2.16,1L17.23,9.9l4.22.7a1.73,1.73,0,0,1,1.21.93l.26.49a2.84,2.84,0,0,1,.32,1.6l0,.23A1.52,1.52,0,0,1,22.53,15h0a1.53,1.53,0,0,1-.56.21l-.89.15H15.59"/>
		<g id="Pfad_6888" data-name="Pfad 6888">
			<path class="cls-2" d="M16.06,11c-1.85.11-3.7.14-5.55.16a13.36,13.36,0,0,1-2.82,0,2.62,2.62,0,0,1-.87-.4,1.28,1.28,0,0,1-.53-1.05,1.4,1.4,0,0,1,.09-.51,2.67,2.67,0,0,1,.22-.35,2.79,2.79,0,0,1,.5-.58s.09,0,.11,0a.06.06,0,0,1,0,.05h0c0,.25,0,.49,0,.71s0,.23,0,.31a.75.75,0,0,0,.08.18c.07.09.17.14.17.08a1.81,1.81,0,0,0,.43.05,14.41,14.41,0,0,1,2.68.33c1.82.26,3.64.53,5.46.88a.08.08,0,0,1,.06.09A.07.07,0,0,1,16.06,11Z"/>
		</g>
		<circle id="Ellipse_287" data-name="Ellipse 287" class="cls-3" cx="4.94" cy="15.08" r="1.98"/>
		<circle id="Ellipse_293" data-name="Ellipse 293" class="cls-3" cx="19.19" cy="15.08" r="1.98"/>
	</g>
</svg>