<svg id="Ebene_1" data-name="Ebene 1" xmlns="http://www.w3.org/2000/svg" viewBox="0 0 64 64">
	<defs>
		<style>.cls-1{fill:#71afcd;transform:scale(2.66667,2.66667);}</style>
	</defs>
	<path class="cls-1" d="M15.21,6.73V2.63A.72.72,0,0,0,14.4,2h0a.71.71,0,0,0-.75.66V6.73Z"/>
	<path class="cls-1" d="M10.39,6.73V2.62A.7.7,0,0,0,9.6,2h0a.73.73,0,0,0-.78.66V6.73Z"/>
	<path class="cls-1" d="M6.71,7.23C6.37,7.22,6,8,6,8.8V10c0,2.48.57,4.62,1.63,5.28S9,16,10.35,16.77V22h3.3V16.77c1.38-.8,1.66-.85,2.72-1.51S18,12.46,18,10V8.8c0-.78-.37-1.58-.71-1.57Z"/>
</svg>