<svg xmlns="http://www.w3.org/2000/svg" viewBox="0 0 64 64">
	<defs>
		<style>.cls-1{fill:#f6bf00;}</style>
	</defs>
	<g id="Ebene_1" data-name="Ebene 1" transform="scale(2,2)">
		<rect class="cls-1" x="25.9" y="15.08" width="4.94" height="1.83" rx="0.92" />
		<rect class="cls-1" x="1.15" y="15.08" width="4.94" height="1.83" rx="0.92" />
		<rect class="cls-1" x="13.53" y="27.46" width="4.94" height="1.83" rx="0.92" transform="translate(44.38 12.38) rotate(90)" /><rect class="cls-1" x="13.53" y="2.71" width="4.94" height="1.83" rx="0.92" transform="translate(19.62 -12.38) rotate(90)" />
		<rect class="cls-1" x="22.28" y="23.84" width="4.94" height="1.83" rx="0.92" transform="translate(24.75 -10.25) rotate(45)" /><rect class="cls-1" x="4.78" y="6.33" width="4.94" height="1.83" rx="0.92" transform="translate(7.25 -3) rotate(45)" />
		<rect class="cls-1" x="4.78" y="23.84" width="4.94" height="1.83" rx="0.92" transform="translate(29.88 37.13) rotate(135)" /><rect class="cls-1" x="22.28" y="6.33" width="4.94" height="1.83" rx="0.92" transform="translate(47.38 -5.13) rotate(135)" />
		<circle class="cls-1" cx="16" cy="16" r="7.27" />
		<rect class="cls-1" x="1.15" y="15.08" width="4.94" height="1.83" rx="0.92" transform="translate(7.25 32) rotate(-180)" />
		<rect class="cls-1" x="25.9" y="15.08" width="4.94" height="1.83" rx="0.92" transform="translate(56.75 32) rotate(-180)" />
		<rect class="cls-1" x="13.53" y="27.46" width="4.94" height="1.83" rx="0.92" transform="translate(44.38 12.37) rotate(90)" />
		<rect class="cls-1" x="13.53" y="2.71" width="4.94" height="1.83" rx="0.92" transform="translate(19.62 -12.38) rotate(90)" />
		<rect class="cls-1" x="4.78" y="23.84" width="4.94" height="1.83" rx="0.92" transform="translate(29.88 37.13) rotate(135)" />
		<rect class="cls-1" x="22.28" y="6.33" width="4.94" height="1.83" rx="0.92" transform="translate(47.38 -5.13) rotate(135)" />
		<rect class="cls-1" x="22.28" y="23.84" width="4.94" height="1.83" rx="0.92" transform="translate(24.75 -10.25) rotate(45)" />
		<rect class="cls-1" x="4.78" y="6.33" width="4.94" height="1.83" rx="0.92" transform="translate(7.25 -3) rotate(45)" />
		<circle class="cls-1" cx="16" cy="16" r="7.27" />
	</g>
</svg>