<?xml version="1.0" encoding="iso-8859-1"?>
<!-- Uploaded to: SVG Repo, www.svgrepo.com, Generator: SVG Repo Mixer Tools -->
<svg version="1.1" id="Layer_1" xmlns="http://www.w3.org/2000/svg" xmlns:xlink="http://www.w3.org/1999/xlink" 
	 viewBox="0 0 490 490" xml:space="preserve">
<g>
	<g id="XMLID_33_">
		<g>
			<rect x="50" y="202.5" style="fill:#F1F2F2;" width="390" height="40"/>
			<polygon style="fill:#767D81;" points="480,242.5 480,282.5 10,282.5 10,242.5 50,242.5 440,242.5 			"/>
			<rect x="380" y="107.5" style="fill:#767D81;" width="65" height="35"/>
			<path style="fill:#FFD248;" d="M245,112.5c13.799,0,25,11.201,25,25s-11.201,25-25,25s-25-11.201-25-25S231.201,112.5,245,112.5z
				"/>
			<path style="fill:#E7ECED;" d="M480,82.5v160h-40v-40H50v40H10v-160c0-5.498,4.502-10,10-10h450
				C475.498,72.5,480,77.002,480,82.5z M445,142.5v-35h-65v35H445z M270,137.5c0-13.799-11.201-25-25-25s-25,11.201-25,25
				s11.201,25,25,25C258.799,162.5,270,151.299,270,137.5z"/>
		</g>
		<g>
			<path style="fill:#231F20;" d="M470,62.5H20c-11.028,0-20,8.972-20,20v200c0,5.522,4.477,10,10,10h470c5.523,0,10-4.478,10-10
				v-200C490,71.472,481.028,62.5,470,62.5z M470,82.5v150h-20v-30c0-5.522-4.477-10-10-10H50c-5.523,0-10,4.478-10,10v30H20v-150
				H470z M430,212.5v20H60v-20H430z M470,272.5H20v-20h450V272.5z"/>
			<path style="fill:#231F20;" d="M245,172.5c19.299,0,35-15.701,35-35s-15.701-35-35-35s-35,15.701-35,35S225.701,172.5,245,172.5z
				 M245,122.5c8.271,0,15,6.729,15,15s-6.729,15-15,15s-15-6.729-15-15S236.729,122.5,245,122.5z"/>
			<path style="fill:#231F20;" d="M55,117.5h15v-20H45c-5.523,0-10,4.478-10,10v25h20V117.5z"/>
			<path style="fill:#231F20;" d="M251,345.5c10.692-8.02,24-18,24-38h-20c0,9.535-5.781,14.336-16,22c-10.692,8.02-24,18-24,38
				s13.308,29.98,24,38c10.219,7.664,16,12.465,16,22h20c0-20-13.308-29.98-24-38c-10.219-7.664-16-12.465-16-22
				S240.781,353.164,251,345.5z"/>
			<path style="fill:#231F20;" d="M151,345.5c10.692-8.02,24-18,24-38h-20c0,9.535-5.781,14.336-16,22c-10.692,8.02-24,18-24,38
				s13.308,29.98,24,38c10.219,7.664,16,12.465,16,22h20c0-20-13.308-29.98-24-38c-10.219-7.664-16-12.465-16-22
				S140.781,353.164,151,345.5z"/>
			<path style="fill:#231F20;" d="M351,345.5c10.692-8.02,24-18,24-38h-20c0,9.535-5.781,14.336-16,22c-10.692,8.02-24,18-24,38
				s13.308,29.98,24,38c10.219,7.664,16,12.465,16,22h20c0-20-13.308-29.98-24-38c-10.219-7.664-16-12.465-16-22
				S340.781,353.164,351,345.5z"/>
			<path style="fill:#231F20;" d="M380,152.5h65c5.523,0,10-4.478,10-10v-35c0-5.522-4.477-10-10-10h-65c-5.523,0-10,4.478-10,10v35
				C370,148.022,374.477,152.5,380,152.5z M390,117.5h45v15h-45V117.5z"/>
		</g>
	</g>
</g>
</svg>